<svg fill="none" xmlns="http://www.w3.org/2000/svg" viewBox="0 0 79 96"><g clip-path="url(#a)"><path d="M1.2 0h76.6c.6 0 1 .4 1 1v76.6c0 .6-.4 1-1 1H1.2c-.6 0-1-.4-1-1V1c0-.6.4-1 1-1Z" fill="#FF6E32"/><path d="M0 0v96h79V0H0Zm77 94H2V2h75v92Z" fill="#FF6E32"/><path d="M62 36.7h-2.8l.2 2.7a19.9 19.9 0 1 1-39.6-2.6H22v4.6c0 4.9 3.2 7.7 8.7 7.7h2.5c4.3 0 6.4-1.6 7.4-3.2 1.5 1.7 3.9 2.6 7 2.6h.9c5.5 0 8.7-2.8 8.7-7.7V25.1L57 25a22.6 22.6 0 1 0 5.1 14.3l-.1-2.6Zm-23.2 4.5c0 3-2 4.6-5.7 4.6h-2.5c-3.7 0-5.9-1.7-5.9-4.6v-4.6h14.1v4.6Zm15.4-.6c0 2.9-2.1 4.6-5.9 4.6h-.9c-3.7 0-5.7-1.6-5.7-4.6v-4h12.4v4h.1ZM39.5 19.4A20 20 0 0 1 54.3 26v7.6H24.8v-1.8H22v1.8h-1.5a19.8 19.8 0 0 1 19-14.2Z" fill="#fff"/><path d="M12.1 87.9c0 1.4-1.1 2.3-2.5 2.3H6.3v-7.7h3c1.3 0 2.4.9 2.4 2.2 0 .6-.3 1.1-.7 1.5.7.3 1.1.9 1.1 1.7Zm-4-3.8v1.4h1.3c.4 0 .7-.3.7-.7 0-.4-.3-.7-.7-.7H8.1Zm2.2 3.7c0-.4-.3-.7-.7-.7H8.1v1.5h1.5c.4-.1.7-.4.7-.8ZM16.7 87.6h-.8v2.5h-1.8v-7.7h3.1c1.5 0 2.7 1.2 2.7 2.7 0 1-.6 1.8-1.4 2.2l1.6 2.8h-1.9l-1.5-2.5Zm-.9-1.5h1.3c.5 0 .9-.4.9-1s-.4-1-.9-1h-1.3v2ZM26.5 89h-2.9l-.4 1.2h-1.9l2.6-7.7h2.3l2.6 7.7h-1.9l-.4-1.2Zm-.5-1.7-1-2.8-.9 2.8H26ZM32.3 82.4v7.7h-1.8v-7.7h1.8ZM40.9 82.4v7.7h-1.3l-3-4.2v4.2h-1.8v-7.7h1.3l3 4.2v-4.2h1.8ZM42.8 88.4l1.5-.9c.3.6.8 1.1 1.6 1.1s1.1-.3 1.1-.6c0-.5-.4-.7-1.6-1-1.1-.3-2.3-.9-2.3-2.4s1.3-2.4 2.6-2.4 2.3.6 2.8 1.7l-1.5 1c-.3-.6-.6-.9-1.3-.9-.6 0-.8.3-.8.6 0 .4.2.6 1.4 1s2.5.8 2.5 2.4c0 1.5-1.2 2.4-2.9 2.4-1.6-.1-2.7-.8-3.1-2ZM55.7 84.1h-2v6h-1.8v-6h-2v-1.7h5.7v1.7h.1ZM57.5 87.7v-5.2h1.8v5.1c0 .6.3 1.1 1.2 1.1.9 0 1.2-.5 1.2-1.1v-5.1h1.8v5.2c0 1.7-1.3 2.7-3 2.7-1.7-.1-3-1.1-3-2.7ZM72.7 86.3c0 2.2-1.6 3.9-3.8 3.9h-3.1v-7.7h3.1c2.2-.1 3.8 1.6 3.8 3.8Zm-1.7 0c0-1.3-.8-2.2-2.1-2.2h-1.3v4.3h1.3c1.2.1 2.1-.8 2.1-2.1Z" fill="#FF6E32"/></g><defs><clipPath id="a"><path fill="#fff" d="M0 0h79v96H0z"/></clipPath></defs></svg>